<svg width="763" height="282" fill="none" xmlns="http://www.w3.org/2000/svg"><path d="M134.33 83.59v127.27a12.735 12.735 0 0011.764-7.865 12.74 12.74 0 00.966-4.875V70.86a12.733 12.733 0 00-12.73 12.73zM70.75 147.22h25.38v-12.73H83.47a12.717 12.717 0 00-12.72 12.73zM185.27 134.49v12.73H198c3.376 0 6.614-1.341 9.001-3.729a12.726 12.726 0 003.729-9.001h-25.46zM108.86 109.18v38h12.74V96.44a12.743 12.743 0 00-12.74 12.74zM159.8 185.35a12.73 12.73 0 0012.73-12.73v-38.1H159.8v50.83zM278.3 118.47c-6 0-10.693 2.173-14.08 6.52-3.387 4.347-5.093 10.347-5.12 18 0 8 1.643 14.057 4.93 18.17 3.287 4.113 8.043 6.167 14.27 6.16a36.64 36.64 0 007.82-.82 88.145 88.145 0 007.86-2.13v9.16a46.61 46.61 0 01-16.94 2.9c-9.3 0-16.44-2.893-21.42-8.68s-7.47-14.07-7.47-24.85a41.177 41.177 0 013.62-17.81 26.354 26.354 0 0110.5-11.7 30.997 30.997 0 0116.11-4.06 39.202 39.202 0 0118 4.19l-3.74 8.89a55.68 55.68 0 00-6.79-2.75 23.904 23.904 0 00-7.55-1.19zM336.64 175.53l-2-6.88h-.35a19.727 19.727 0 01-7 6.14 21.55 21.55 0 01-9 1.63c-4.72 0-8.403-1.31-11.05-3.93-2.647-2.62-3.98-6.327-4-11.12 0-5.087 1.84-8.923 5.52-11.51 3.68-2.587 9.283-4.003 16.81-4.25l8.3-.26v-2.64c0-3.147-.717-5.503-2.15-7.07-1.43-1.57-3.66-2.35-6.67-2.35a22.343 22.343 0 00-7.08 1.12 52.444 52.444 0 00-6.57 2.59l-3.3-7.5a35.008 35.008 0 018.56-3.19 38.32 38.32 0 018.78-1.09c6.113 0 10.723 1.367 13.83 4.1 3.107 2.733 4.663 7.037 4.67 12.91v33.26l-7.3.04zm-15.2-7.15a12.44 12.44 0 008.93-3.19c2.24-2.127 3.36-5.11 3.36-8.95V152l-6.17.27c-4.8.18-8.297 1.007-10.49 2.48a7.598 7.598 0 00-3.28 6.76 6.696 6.696 0 001.91 5.11c1.28 1.18 3.193 1.767 5.74 1.76zM382.57 125.26a23.857 23.857 0 015.08.44l-1 9.78a18.707 18.707 0 00-4.52-.54 12.903 12.903 0 00-9.93 4.11 15.12 15.12 0 00-3.8 10.67v25.81h-10.21v-49.38h8l1.34 8.7h.53a19.332 19.332 0 016.23-7 14.5 14.5 0 018.28-2.59zM412.76 176.42c-6 0-10.667-2.233-14-6.7-3.333-4.467-5-10.73-5-18.79 0-8.1 1.7-14.403 5.1-18.91 3.4-4.507 8.113-6.76 14.14-6.76 6.32 0 11.13 2.393 14.43 7.18h.52a64.959 64.959 0 01-.74-8.39v-18h10.25v69.47h-8l-1.78-6.48h-.48c-3.307 4.92-8.12 7.38-14.44 7.38zm2.74-8.48c4.2 0 7.253-1.213 9.16-3.64s2.907-6.363 3-11.81V151c0-6.22-1-10.64-3-13.26-2-2.62-5.083-3.93-9.25-3.93a9.317 9.317 0 00-8.3 4.48c-1.94 3-2.91 7.267-2.91 12.8s.933 9.713 2.8 12.54a9.478 9.478 0 008.5 4.31zM451.38 113.07a5.885 5.885 0 011.5-4.33 5.772 5.772 0 014.28-1.52 5.607 5.607 0 014.19 1.52 5.885 5.885 0 011.5 4.33 5.808 5.808 0 01-1.5 4.22 5.586 5.586 0 01-4.19 1.54 5.726 5.726 0 01-4.28-1.54 5.809 5.809 0 01-1.5-4.22zm10.82 62.46H452v-49.38h10.2v49.38zM519.42 150.75c0 8.06-2 14.353-6 18.88-4 4.527-9.603 6.79-16.81 6.79a22.529 22.529 0 01-11.91-3.13 20.36 20.36 0 01-8-9 31.314 31.314 0 01-2.78-13.57c0-8 2-14.25 6-18.75s9.633-6.747 16.9-6.74c6.953 0 12.457 2.297 16.51 6.89 4.053 4.593 6.083 10.803 6.09 18.63zm-35 0c0 11.4 4.1 17.1 12.3 17.1 8.2 0 12.253-5.7 12.16-17.1 0-11.28-4.083-16.92-12.25-16.92-4.28 0-7.387 1.457-9.32 4.37-1.933 2.913-2.89 7.097-2.87 12.55h-.02zM541.36 175.53h-10.21v-69.47h10.21v69.47zM598.57 150.75c0 8.06-2 14.353-6 18.88-4 4.527-9.607 6.79-16.82 6.79-4.181.084-8.302-1-11.9-3.13a20.36 20.36 0 01-8-9 31.179 31.179 0 01-2.78-13.57c0-8 2-14.25 6-18.75s9.633-6.747 16.9-6.74c6.947 0 12.45 2.297 16.51 6.89 4.06 4.593 6.09 10.803 6.09 18.63zm-35 0c0 11.4 4.1 17.1 12.3 17.1 8.2 0 12.253-5.7 12.16-17.1 0-11.28-4.083-16.92-12.25-16.92-4.287 0-7.393 1.457-9.32 4.37-1.927 2.913-2.88 7.097-2.86 12.55h-.03zM650.88 126.15v5.76l-8.21 1.56a13.72 13.72 0 011.87 3.84c.497 1.558.747 3.184.74 4.82 0 5.087-1.71 9.087-5.13 12-3.42 2.913-8.137 4.377-14.15 4.39a22.093 22.093 0 01-4.17-.36c-2.2 1.4-3.3 3-3.3 4.91a2.718 2.718 0 001.54 2.54c1.027.567 2.917.85 5.67.85h8.39c5.333 0 9.357 1.163 12.07 3.49 2.713 2.327 4.09 5.66 4.13 10a14.7 14.7 0 01-1.646 7.368 14.702 14.702 0 01-5.084 5.582c-4.493 3.033-10.983 4.55-19.47 4.55-6.54 0-11.54-1.19-15-3.57a11.65 11.65 0 01-5.13-10.14 11 11 0 012.81-7.66 14.932 14.932 0 017.84-4.3 7.782 7.782 0 01-3.37-2.88 7.452 7.452 0 01-1.32-4.18 7.305 7.305 0 011.52-4.69 17.788 17.788 0 014.52-3.79 13.436 13.436 0 01-6.07-5.38 16.212 16.212 0 01-2.32-8.73c0-5.333 1.643-9.483 4.93-12.45 3.287-2.967 7.973-4.44 14.06-4.42 1.432.002 2.861.099 4.28.29 1.132.124 2.255.325 3.36.6h16.64zm-37.75 57.06a5.809 5.809 0 003 5.22c2 1.22 4.79 1.83 8.37 1.83 5.56 0 9.7-.82 12.42-2.46 2.72-1.63 4.09-3.81 4.09-6.51a4.944 4.944 0 00-2.24-4.58c-1.49-.91-4.27-1.36-8.32-1.36h-7.73a10.65 10.65 0 00-7 2.12 7.001 7.001 0 00-2.59 5.74zm4.39-41.08c0 3.1.773 5.483 2.32 7.15a8.68 8.68 0 006.67 2.5c5.913 0 8.867-3.247 8.86-9.74 0-3.207-.73-5.683-2.19-7.43-1.46-1.74-3.69-2.61-6.67-2.61s-5.19.86-6.71 2.59c-1.52 1.73-2.28 4.24-2.28 7.54zM692.07 161.46c0 4.82-1.71 8.52-5.13 11.1s-8.313 3.867-14.68 3.86c-6.4 0-11.543-1-15.43-3v-9.07a37.046 37.046 0 0015.77 4c6.287 0 9.43-1.95 9.43-5.85a4.72 4.72 0 00-1-3.12 12.503 12.503 0 00-3.43-2.59 60.85 60.85 0 00-6.65-3c-5.527-2.2-9.27-4.4-11.23-6.6a12.432 12.432 0 01-2.93-8.58 11.335 11.335 0 015-9.84c3.333-2.34 7.847-3.507 13.54-3.5a37.477 37.477 0 0116 3.52l-3.33 7.9c-5.18-2.207-9.537-3.31-13.07-3.31-5.387 0-8.08 1.577-8.08 4.73a4.802 4.802 0 002.1 3.93c1.413 1.073 4.477 2.547 9.19 4.42a41.828 41.828 0 018.65 4.33 12.916 12.916 0 014 4.53 13.572 13.572 0 011.28 6.14zM701.14 114.78a9.115 9.115 0 014.51-7.84 9.054 9.054 0 014.54-1.21 8.991 8.991 0 014.51 1.2 9.05 9.05 0 01.053 15.661 9.007 9.007 0 01-4.563 1.219 9.003 9.003 0 01-9.05-9v-.03zm1.48 0a7.57 7.57 0 1011.38-6.56 7.498 7.498 0 00-3.77-1 7.376 7.376 0 00-3.76 1 7.466 7.466 0 00-2.77 2.75 7.381 7.381 0 00-1.08 3.81zm11.24-2.15a2.778 2.778 0 01-1.84 2.81l2.85 4.77h-2.54l-2.33-4.16h-1.08v4.16h-2.28v-10.86h3.16a4.678 4.678 0 013.06.82 3.004 3.004 0 011 2.46zm-4.92 1.68h.83c.486.029.966-.12 1.35-.42.155-.159.275-.349.352-.558.078-.208.111-.43.098-.652a1.44 1.44 0 00-.44-1.21 2.305 2.305 0 00-1.39-.34h-.8v3.18z" fill="#08244C"/></svg>
